<svg xmlns="http://www.w3.org/2000/svg" viewBox="0 0 1600 1000"><defs><linearGradient id="s" x2="0" y2="1"><stop stop-color="#17164d"/><stop offset=".55" stop-color="#db4f79"/><stop offset="1" stop-color="#ffc86b"/></linearGradient><linearGradient id="r"><stop stop-color="#3e86b9"/><stop offset=".5" stop-color="#bd6c9e"/><stop offset="1" stop-color="#e5b76a"/></linearGradient></defs><rect width="1600" height="650" fill="url(#s)"/><circle cx="1180" cy="230" r="120" fill="#ffe292" opacity=".8"/><path d="M0 570q360 90 800 0t800 0v430H0z" fill="url(#r)"/><path d="M0 700q400-110 800 0t800 0" fill="none" stroke="#fff0c2" stroke-opacity=".45" stroke-width="12"/><g fill="#15143f"><path d="M210 650h310l-50 38H245zM1020 720h260l-42 30h-180z"/><path d="M350 650V470l140 180zM1135 720V575l110 145z"/></g><g fill="#f2b75e"><path d="M695 570h210v36H695zM735 455h130v115H735zM775 290h50v165H775zM760 290l40-105 40 105z"/></g></svg>
