<svg xmlns="http://www.w3.org/2000/svg" viewBox="0 0 1600 1000" role="img" aria-labelledby="t d"><title id="t">Sacred temple of Kashi</title><desc id="d">A luminous stylised temple spire framed by marigold colours and deep indigo.</desc><defs><linearGradient id="bg" x2="1" y2="1"><stop stop-color="#090b2d"/><stop offset=".55" stop-color="#4d1f75"/><stop offset="1" stop-color="#df476e"/></linearGradient><linearGradient id="gold" x2="0" y2="1"><stop stop-color="#fff1a8"/><stop offset=".45" stop-color="#f6bd55"/><stop offset="1" stop-color="#ba592f"/></linearGradient><radialGradient id="halo"><stop stop-color="#ffd968" stop-opacity=".8"/><stop offset="1" stop-color="#ffd968" stop-opacity="0"/></radialGradient><filter id="glow"><feGaussianBlur stdDeviation="12" result="b"/><feMerge><feMergeNode in="b"/><feMergeNode in="SourceGraphic"/></feMerge></filter></defs><rect width="1600" height="1000" fill="url(#bg)"/><circle cx="800" cy="430" r="390" fill="url(#halo)" opacity=".42"/><g fill="none" stroke="#ffffff17"><circle cx="800" cy="430" r="300"/><circle cx="800" cy="430" r="365"/><path d="M150 190l1300 620M1450 190L150 810"/></g><g fill="url(#gold)" filter="url(#glow)"><path d="M590 850h420v90H590zM635 745h330v105H635zM672 665h256v80H672zM700 565h200v100H700zM735 435h130v130H735zM760 265h80v170H760zM790 130h20v135h-20z"/><path d="M765 265l35-105 35 105zM705 565l95-165 95 165zM650 745l150-185 150 185z"/></g><g fill="#2a174c"><rect x="755" y="770" width="90" height="170" rx="45"/><rect x="735" y="590" width="55" height="75" rx="27"/><rect x="810" y="590" width="55" height="75" rx="27"/></g><g fill="#ffca64" opacity=".9"><circle cx="310" cy="280" r="9"/><circle cx="1280" cy="350" r="12"/><circle cx="1180" cy="720" r="8"/><circle cx="390" cy="710" r="13"/></g><path d="M0 865q250-80 500 0t500 0 600 0v135H0z" fill="#080b28" opacity=".7"/></svg>
